<svg xmlns="http://www.w3.org/2000/svg" data-name="Layer 1" viewBox="0 0 24 24">
  <path d="M20.033 13.372a24.683 24.683 0 0 0-.71-1.38 3.609 3.609 0 0 1-.426-1.767 25.573 25.573 0 0 0-.224-3.501C18.254 3.568 15.282 1 12.05 1h-.103C8.715 1 5.743 3.567 5.324 6.724a25.583 25.583 0 0 0-.224 3.501 3.626 3.626 0 0 1-.426 1.767c-.26.473-.498.932-.708 1.375a3.831 3.831 0 0 0-.105 3.064 3.84 3.84 0 0 0 2.16 2.181 11.08 11.08 0 0 0 2.793.736 3.221 3.221 0 0 0 3.185 3.653 3.22 3.22 0 0 0 3.185-3.65c1.164-.157 2-.411 2.802-.737a3.838 3.838 0 0 0 2.152-2.181 3.834 3.834 0 0 0-.106-3.06Zm-5.819 6.408c0 1.224-.993 2.22-2.214 2.22a2.22 2.22 0 0 1-2.189-2.548c.632.049 1.351.074 2.188.074s1.559-.025 2.191-.073c.016.107.024.217.024.327Zm4.994-3.711a2.846 2.846 0 0 1-1.596 1.617c-1.277.519-2.661.84-5.613.84-2.927 0-4.314-.322-5.603-.842a2.845 2.845 0 0 1-1.603-1.618 2.839 2.839 0 0 1 .079-2.272c.201-.425.429-.865.679-1.319a4.63 4.63 0 0 0 .55-2.255 24.535 24.535 0 0 1 .215-3.364c.35-2.632 2.929-4.855 5.632-4.855h.103c2.703 0 5.282 2.224 5.632 4.855.149 1.117.221 2.249.215 3.364a4.627 4.627 0 0 0 .55 2.255c.25.455.48.897.682 1.324.341.722.369 1.528.079 2.27Z"/>
</svg>
